-------------------------------------------------
AVC (Advanced Video Coding) H264
High Efficiency Dolby Digital Surround
-------------------------------------------------

Separate Greek English Subtitles

IMDB 
http://www.imdb.com/title/tt1436045/



13 Assassins (2010) BRrip HDrendy Dolby Surround Media Info

Format                           : MPEG-4
Format profile                   : Base Media / Version 2
Codec ID                         : mp42
File size                        : 1.16 GiB
Duration                         : 2h 21mn
Overall bit rate                 : 1 167 Kbps

Video
Format                           : AVC
Format/Info                      : Advanced Video Codec
Codec ID/Info                    : Advanced Video Coding
Duration                         : 2h 21mn
Bit rate mode                    : Variable
Bit rate                         : 1 084 Kbps
Maximum bit rate                 : 6 022 Kbps
Width                            : 720 pixels
Height                           : 480 pixels
Display aspect ratio             : 16:9
Frame rate mode                  : Constant
Frame rate                       : 30.000 fps
Standard                         : NTSC
Scan type                        : Progressive
Stream size                      : 1.07 GiB (93%)

Audio
Format                           : AAC
Format/Info                      : Advanced Audio Codec
Format profile                   : High-Efficiency 
Duration                         : 2h 21mn
Bit rate mode                    : Variable
Bit rate                         : 79.8 Kbps
Maximum bit rate                 : 110 Kbps
Channel(s)                       : 6 channels
Channel positions                : Front: L C R, Side:L R, LFE
Sampling rate                    : 48.0 KHz / 24.0 KHz
Compression mode                 : Lossy
Stream size                      : 81.0 MiB (7%)

